<svg xmlns="http://www.w3.org/2000/svg" width="208.1" height="96.1" version="1.0"><path fill="transparent" fill-rule="evenodd" d="M206.7 96h1.3V0H0v96h1.3V1.3h205.4V96"/><path fill="#3d5b9a" fill-rule="evenodd" d="M208 96H0z"/><path fill="#b5c3e2" fill-rule="evenodd" d="M206.7 96v-1.3H1.3V96z"/><path fill="#3d5b9a" fill-rule="evenodd" d="M206.7 94.7V1.3H1.3v93.4z"/><path fill="#fff" fill-rule="evenodd" d="M76.5 50.8v5.8l.2 1 .1 1 .3 1 .3.7.5.8.4.8.7.7.7.6.8.5.8.5 1.1.4 1 .3 1.2.2 1.2.2h3.7l1.1-.2h1l.9-.2 1.1-.1 1.1-.2 1.4-.2v-5.7l-1.4.1-1.1.2-1 .1-1 .2h-3.8v.1h-1.1l-1-.2-.7-.2-.5-.3-.4-.4-.2-.6-.2-.8v-1.4h13v-4.7l-.1-1.2-.1-1-.2-1-.3-.9-.4-.8-.4-.8-.5-.7-.6-.5-.7-.6-.7-.5-.9-.4-.9-.3-1-.2-1-.2-1.2-.1h-2.4l-1.1.1-1.1.2-1 .2-.9.3-.8.4-.8.5-.6.6-.7.5-.4.7-.5.8-.3.8-.3.9-.1 1-.2 1zm10.1-3.9h.7l.7.2.5.2.5.5.2.3.2.5v.5l.2.8v.9h-6v-1.7l.1-.6.2-.5.4-.3.4-.4.5-.2.6-.2zM121.8 55.8v1l.1 1.1.2 1 .3 1 .3.8.5.8.5.7.7.7.6.5.8.5.8.4 1 .4 1 .2 1.1.2 1.2.1h2.5l1.1-.1 1.1-.2 1-.2 1-.4.8-.4.3-.3.4-.2.8-.5.5-.7.5-.7.5-.8.4-.8.3-1v-.5l.2-.5.1-1 .1-1.1v-4.7l-.1-1.2-.1-1-.2-1.1-.3-.9-.4-.9-.5-.7-.5-.8-.5-.6-.8-.6-.7-.4-.9-.5-.8-.3-1.1-.2-1-.2-1.2-.1h-2.5l-1.2.1-1.1.2-1 .2-1 .3-.8.5-.8.4-.6.6-.7.6-.5.8-.5.7-.3 1-.3.8-.2 1-.1 1.1v5.9m7.1.7v-6.8l.2-.6.2-.5.4-.3.4-.4.6-.2.6-.2h1.6l.6.2.6.2.4.4.4.3.2.5.2.6.1.8V57l-.2.3v.3l-.3.5h-.2v.2l-.2.3-.4.2-.6.3-.6.1h-.6l-.2.1h-.8l-.6-.2-.6-.3-.4-.2-.4-.5-.2-.5-.2-.6zM165.3 55.8v-4.7l-.1-1.2-.1-1-.2-1.1-.3-.9-.4-.9-.5-.7-.5-.8-.5-.6-.8-.6-.8-.4-.8-.5-.9-.3-1-.2-1.1-.2-1.2-.1h-2.5l-1.1.1-1.2.2-1 .2-1 .3-.8.5-.8.4-.6.6-.6.6-.6.8-.4.7-.4 1-.3.8-.1 1-.2 1.1v6.9l.2 1.1.1 1 .3 1 .4.8.4.8.6.7.6.7.6.5.8.5.8.4 1 .4 1 .2 1.2.2 1.1.1h2.5l1.2-.1 1-.2 1.1-.2.9-.4.8-.4.8-.5.8-.5.5-.7.5-.7.5-.8.4-.8.3-1v-.5l.2-.5.1-1zm-10.4 3.6h-.9l-.6-.2-.6-.3-.4-.2-.4-.5-.2-.5-.2-.6v-7.4l.2-.6.2-.5.4-.3.4-.4.6-.2.6-.2h1.6l.7.2.5.2.5.4.3.3.3.5.2.6v7.4l-.2.3v.3l-.3.5h-.1l-.1.2-.1.3-.5.2-.5.3-.7.1h-.6zM74.5 42.5l-2.1-.4-1.8-.3-1.7-.2h-3l-1.2.1-1.2.2-1 .4-1 .3-.9.5-.8.5-.7.7-.6.6-.5.8-.5.7-.2.9-.4.8-.1 1-.1 1.1v6.4l.1 1 .1 1 .4 1 .2.7.5.8.5.8.6.7.7.6.8.5.9.5 1 .4 1 .3 1.2.2 1.2.2h3l.8-.2h.9l1.8-.4 2-.3v-5.7l-2 .2-1.9.3-1.4.1h-.7l-.5.1h-1.1l-1-.2-.7-.2-.4-.3-.5-.4-.2-.6-.2-.8v-7l.2-.7.2-.6.5-.4.4-.3.8-.2.9-.2h2.4l1.3.2h.6l1 .2 1 .2 1.4.2zM35.4 30.7h-6.7l-.9.2-.7.2-.8.3-.6.4-.6.4-.4.5-.8 1-.4.6-.2.8-.3 1.4V42h-3.6v6h3.5V65h7.2V47.9h4.7l.6-6h-5.3v-4l.1-.4.2-.2.3-.4.4-.2.6-.1h3.7zM54.3 65V49.8l-.1-1-.1-1-.2-.8-.3-1-.3-.7-.4-.7-.5-.5-.6-.5-.7-.4-.9-.4-.9-.3-1.1-.3-1.1-.1h-9.4l-.6 5.9h7.3l1 .1.7.2.5.3.3.4.2.6v1l.1.5v1h-6.7l-.8.1-.7.2-.7.2-.6.2-.6.3-.4.4-.5.3-.4.5-.3.5-.2.7-.3.6-.1.7-.1 1.7v1.4l.4 1.3.5 1.2.3.5.5.6.4.4.5.4.5.3.7.3.6.2.7.2 1.6.1.8-.1h.8l1.8-.4 1.6-.5.8-.4.4-.2.4-.2.3 1.6zM44 60.4l-.6-.1H43l-.6-.5-.2-.3-.2-.3V58l.1-.4.1-.3.3-.1.2-.2.4-.1h4.2v2.5l-.6.2-.5.2-.3.2-.1.1-1 .2H44M118.3 43.9l-.6-.6-.6-.5-.7-.4-.8-.3-1-.2-1-.2-1-.1h-2.7l-1.3.2-1.3.2-1.2.5V31.3l-7 1.2v31.9h.7l.8.2h.7l.6.2 1.1.1.9.2 2.2.2h2.4l1.5-.1 1.5-.1 1.4-.2 1.2-.3 1-.4.5-.3.5-.2.9-.5.1-.2.2-.1.4-.3.4-.7.4-.6.2-.4v-.2l.2-.2.3-.8.2-.9v-.5l.2-.5v-1l.1-1.1v-6.9l-.1-1-.1-.9-.2-.7-.2-.7-.2-.6-.4-.6zm-6.2 4.5.2.3.2.5.1.5v6.9l-.1.7-.2.3v.3l-.3.6h-.2l-.1.2-.3.2-.4.2h-.2l-.1.2h-.5l-.5.2h-2.4l-.7-.1h-.5v-11l1-.4 1-.3.8-.2h1.6l.6.2.5.2zM174.4 31.3l-7.1 1.2V65h7.1V54.2l6.5 10.8h7.7l-7.1-11.8 7.1-11.3h-7.7l-6.5 10.4z"/></svg>