<svg xmlns="http://www.w3.org/2000/svg" width="828.1" height="80" version="1.0"><path fill="#ccf" fill-rule="evenodd" d="M110.7 16V2.5H97.3v13.3z"/><path fill="#9797cc" fill-rule="evenodd" d="M110.7 29.3V15.9H97.3v13.4z"/><path fill="#ccf" fill-rule="evenodd" d="M84 29.3h13.3V15.9H84z"/><path fill="#9797cc" fill-rule="evenodd" d="M97.3 29.3H84v13.3h13.3z"/><path fill="#ccf" fill-rule="evenodd" d="M70.7 56V42.5H57.3v13.3z"/><path fill="#9797cc" fill-rule="evenodd" d="M70.7 42.6v13.3H84V42.6zM70.7 56H57.3v13.3h13.4z"/><path fill="#ccf" fill-rule="evenodd" d="M84 29.3H70.7v13.3H84z"/><path fill="#000097" fill-rule="evenodd" d="M57.3 42.6V29.3H44v13.3z"/><path fill="#ccf" fill-rule="evenodd" d="M44 69.3h13.3V55.9H44z"/><path fill="#000097" fill-rule="evenodd" d="M828 16H110.7v13.3H97.3v13.3H84v13.3H70.7v13.4H828zM504.5 35h2.3v8.2h-.8l-.6.2-.5.1-.3.3-.3.4-.2.5-.2.7-.1.9-.1.7-.1.1v.6l-.3 1.3-.5 1.2-.3.6-.1.2v.4l-.7 1-.4.4h-.2v.2l-.2.2-.8.8-1 .8-.6.2-.6.2-.4.1-.4.1-.6.3h-.9l-.8.2h-1l-.9.1h-1.1V48h1.3l.7-.2.6-.2v-.2h.2l.3-.2.1-.2.2-.3.3-.6v-.4l.2-.3.1-.9v-1.5l.2-1.2.1-1.1.3-.7.6-1.3 1.1-1.3.6-.6.6-.4.7-.4.8-.2 1.7-.4.9-.2zM490.7 45l-.1.2v1.3h-11.9l-.2-.9v-1.8l.4-1h3.9l-.2-.6-.1-.5-.3-.4-.3-.3-.4-.3-.4-.1-.4-.1h-1.2l-.6.2-.6.4-.5.6-.5.6-.2.8-.2.8v1.9l.2.9.2.7.5.7.4.5.6.5.6.2.7.1.6-.1.5-.2.5-.4.7-.4 4.4 5.3-.8.5-.8.5-.9.4-.8.4-.9.2h-.4l-.5.2-.9.1h-.5l-.4.1h-1.2l-1-.2-1.1-.3-1-.3-1-.5-.9-.5-.8-.6-.8-.7-.8-.8-.6-.9-.6-1-.4-.8-.4-1-.2-1-.1-1.1v-1.1l.2-2.2.2-1 .4-1 .4-1 .6-.9.6-.8.8-.8.7-.8.9-.6.9-.6 1-.4 2-.6 1.1-.1h2.2l1 .1 1 .2 1 .4 1 .4.9.6.8.6.9.8.7.7.6.9.5.8.5 1 .3.9.3 1 .1 1zm-36.8 2.5.5.3.5.3.6.2h1.1l.5-.2.4-.2.4-.2.2-.3.4-.4.2-.5.3-.4 7.7-.4-.2 1.1-.2 1-.3 1-.1.2-.1.3-.1.5-.3.4-.1.2-.1.3-.5.8-.6.8-.7.8-.9.7-.8.6h-.2l-.2.2-.4.3h-.3l-.2.2-.4.2-1 .3-1 .3-1 .1H455l-1.1-.1-1-.3-1-.3-1-.5-.9-.5-.8-.7-.8-.7-.8-.9-.6-.9-.6-.9-.4-1-.4-1-.2-1-.2-1V45l.2-2.2.6-2 1-1.8.6-.8.8-.8 1.7-1.4 1.8-1 1-.4 1-.2 2.2-.1h.9l.9.1.9.2.9.3.8.3.9.4 1.6 1.2 1.3 1.2.5.7.6.8.4.8.3.9.3.8.2 1-7.8.3-.6-.6-.4-.3-.2-.1-.7-.3h-.7l-1.3.2-.5.2-.4.4-.4.4-.2.6-.2 1.2v.6l.2.7.2.5zm-12.2-18.2-.1.2v.6l-.1.3-.1.4-.2.3-.1.3-.3.3-.1.1h-.1v.2l-.7.4-.6.3-.4.1-.4.1h-.6l-.1.1h-.9l-.7-.3-.7-.3-.5-.4-.3-.3-.2-.3-.4-.6-.2-.7v-1.6l.2-.6.4-.7.6-.5.5-.6.7-.3.7-.2h1.5l.8.2.6.3.6.6.5.5.3.7.2.6zm-7.8 5.5h7.8v20.8h-7.8zm-30.2 20.8V44.3l.2-2.2.1-1 .3-.9.3-1 .5-.7 1.1-1.4 1.3-1.2 1.5-.8.8-.4 1-.2.9-.1h2.1l1.3.2v.2h6l2.2 5.7 2.5-5.7h7.2l-9.7 21.6-8.2-18.4v5l-.8-.5h-1.2l-.4.2-.4.2-.2.4-.3.4-.1.6-.2.6v10.7zm-6.2-18.1.7.7.6.9.5.8.5 1 .3.9.3 1 .1 1 .1 1.2v.5l-.1.4v.6h-11.8l-.2-.9-.1-.8v-1l.4-1h4l-.3-.6-.1-.5-.3-.4-.2-.3-.4-.3-.4-.1-.5-.1h-1.2l-.6.2-.6.4-.5.6-.4.6-.2.8-.2.8v1.9l.2.9.2.7.4.7.4.5.6.5.6.2.8.1.5-.1.5-.2.6-.4.6-.4 4.4 5.3-.8.5-.8.5-.8.4-.8.4-1 .2h-.4l-.4.2-1 .1h-.4l-.4.1h-1.2l-1.1-.2-1-.3-1-.3-1-.5-1-.5-.8-.6-.7-.7-.8-.8-.6-.9-.6-1-.4-.8-.4-1-.2-1-.2-1.1v-1.1l.2-2.2.2-1 .4-1 .4-1 .6-.9.6-.8.8-.8.8-.8.8-.6.9-.6 1-.4 2-.6 1.1-.1h2.2l1.1.1 1 .2 1 .4.9.4.9.6.9.6zm-24.6-11h.8l.9.1 1.7.5v8l-.8-.2-.6-.1-.9.1-.7.6-.6.8-.1 1v.4l.1.5.2.5.4.7.7 1.1.7 1.5.3.7.3.8.1.7v.3l.2.4.1 1.5v1l-.2 1-.2.9-.3.9-.5.8-.2.4-.2.2v.3l-.6.8-.7.8-.8.6-.8.6h-.3l-.2.2-.4.2-.8.5-1 .3-.9.2-1 .2h-2l-1-.2-1.1-.4-1-.3v-8.3l.6.4.6.2.4.2h1l.6-.2.4-.2.4-.2.3-.4.3-.4.1-.4v-.9l-.2-.3v-.2l-.3-.4-.2-.4-.2-.5-.2-.3V43l-.9-1.8-.5-1.6-.4-1.7-.1-1.6.1-2 .6-1.8.8-1.6.6-.8.8-.7.6-.7.8-.6 1.7-.9 1.8-.6z"/><path fill="#fff" fill-rule="evenodd" d="M506.8 35.1h-3.4l-1 .2-1.6.4-.8.2-.7.4-.6.4-.6.6-1.1 1.3-.6 1.3-.3.7-.1 1-.1 1.3-.1 1.5-.1.9-.2.3v.4l-.3.6-.2.3-.1.2-.3.2h-.1l-.1.2-.6.2-.7.2h-1.3v8.2h2.1l.9-.1.8-.1.4-.1h.5l.6-.3.4-.1h.4l.6-.3.6-.2 1-.8.8-.8.2-.2v-.2h.2l.4-.4.6-1v-.2l.1-.2.1-.2.3-.6.5-1.2.3-1.3v-.7l.2-.7v-.9l.3-.7.2-.5.3-.4.3-.3.5-.1.6-.2h.8zM490.5 46.5v-.6l.1-.4V44l-.1-1.1-.3-1-.3-1-.5-.9-.5-.8-.6-.9-.7-.7-.9-.8-.8-.6-1-.6-.8-.4-1-.4-1-.2-1.1-.1h-2.2l-1 .1-2.1.6-1 .4-.9.6-.9.6-.7.8-.8.8-.6.8-.6.9-.4 1-.4 1-.2 1-.2 2.2v1l.1 1.1.2 1 .4 1.1.4.9.6.9.6.9.8.8.8.7.8.6.9.5 1 .5 1 .3 1 .3 1.1.1 1.2.1h.9l1-.2.3-.1v-.1h.5l1-.2.7-.4.9-.4.8-.5.8-.5-4.4-5.3-.7.4-.5.4-.5.2-.6.1-.7-.1-.6-.2-.6-.5-.4-.5-.5-.7-.2-.7-.2-.9v-2l.2-.7.2-.8.5-.6.5-.6.6-.4.6-.2h1.2l.4.1.4.1.4.3.3.3.3.4.1.5.2.6h-4l-.3 1v1.8l.2.9zM456.2 48.3h-.7l-.6-.2-.5-.3-.5-.3-.4-.6-.2-.5-.2-.7v-.6l.2-1.2.2-.6.4-.4.4-.4.5-.2 1.3-.2h.7l.7.3.2.1.4.3.6.6 7.8-.3-.2-1-.3-.8-.3-.9-.4-.8-.6-.8-.5-.7-1.3-1.2-1.6-1.2-.9-.4-.8-.3-1-.3-.8-.2-1-.1h-.8l-2.2.1-1 .2-1 .4-1.8 1-1.7 1.4-.8.8-.6.8-1 1.8-.6 2-.2 2.2v1l.2 1.1.2 1 .4 1 .4 1 .6 1 .6.8.8.9.8.7.8.7.9.5 1 .5 1 .3 1 .3 1 .1h2.3l1-.1.9-.3 1-.3.4-.2.2-.2h.3l.4-.3.2-.1.2-.1.8-.6.9-.7.7-.8.6-.8.5-.8v-.3l.2-.2.3-.4.1-.5V49l.2-.2.3-1 .2-1 .2-1-7.7.3-.3.4-.2.5-.4.4-.2.3-.4.2-.4.2-.5.2zM440.6 32v-.2l.2-.1.3-.3.1-.3.2-.3v-.4l.2-.3v-1.6l-.3-.6-.3-.7-.5-.5-.6-.6-.6-.3-.8-.2H437l-.7.2-.7.3-.5.6-.6.5-.4.7-.2.6v1.6l.2.7.4.6.2.3.3.3.5.4.7.3.7.2.9.1h.7l.4-.2h.4l.6-.4zM441.7 34.8h-7.8v20.8h7.8zM403.7 44.3v11.3h7.8V44.9l.2-.6.1-.6.3-.4.2-.4.4-.2.4-.2h1.2l.8.4V38l8.2 18.4 9.7-21.6h-7.2l-2.5 5.7-2.2-5.7h-6v-.2l-1.3-.2h-2.1l-1 .1-.9.2-.8.4-1.5.8-1.3 1.2-1.1 1.4-.5.8-.3.9-.3.9-.1 1zM400.6 45v-1.1l-.2-1.1-.3-1-.3-1-.5-.9-.5-.8-.6-.9-.7-.7-.8-.8-.9-.6-1-.6-.8-.4-1-.4-1-.2-1-.1h-2.3l-1 .1-2.1.6-1 .4-.9.6-.8.6-.8.8-.8.8-.6.8-.6.9-.4 1-.4 1-.2 1-.2 2.2v1l.2 1.1.2 1 .4 1.1.4.9.6.9.6.9.8.8.7.7.9.6.8.5 1 .5 1 .3 1.1.3 1 .1 1.3.1h.8l1-.2.4-.1v-.1h.4l1-.2.8-.4.8-.4.8-.5.8-.5-4.4-5.3-.6.4-.6.4-.5.2-.5.1-.8-.1-.6-.2-.6-.5-.4-.5-.4-.7-.2-.7-.2-.9v-2l.2-.7.2-.8.4-.6.5-.6.6-.4.6-.2h1.2l.5.1.4.1.4.3.2.3.3.4.1.5.2.6h-3.9l-.3 1-.1 1v.8l.3.9h11.8v-1.3zM376.3 27l-1.7-.4-.9-.1h-.8l-1.9.1-1.8.6-1.7.9-.8.6-.6.7-.8.7-.6.8-.8 1.6-.6 1.8-.1 2v1.6l.5 1.7.5 1.6.9 1.7v.2l.2.3.2.5.2.4.2.4.1.2.1.3.1.2v.7l-.1.4-.3.4-.3.4-.4.2-.4.2-.6.2h-1l-.4-.2-.6-.2-.6-.4v8.3l1 .3 1 .4 1 .2h2.1l1-.2 1-.2 1-.3.7-.5.4-.2.2-.2h.3l.8-.6.8-.6.7-.8.6-.8v-.3l.2-.2.2-.4.5-.8.3-1 .2-.9.2-1v-.9l-.1-1.5-.1-.4-.1-.1v-.2l-.1-.7-.3-.8-.3-.7-.7-1.5-.7-1.1-.4-.7-.2-.5-.1-.5v-.4l.1-1 .6-.8.7-.6 1-.1h.5l.8.3z"/><path fill="transparent" fill-rule="evenodd" d="M828 16V0H0v80h828V69.2H44V55.9h13.3V42.6H44V29.3h13.3v13.3h13.4V29.3H84V15.9h13.3V2.6h13.4v13.3z"/></svg>