<svg xmlns="http://www.w3.org/2000/svg" width="828.1" height="80" version="1.0"><path fill="#ccf" fill-rule="evenodd" d="M110.7 16V2.5H97.3v13.3z"/><path fill="#9797cc" fill-rule="evenodd" d="M110.7 29.3V15.9H97.3v13.4z"/><path fill="#ccf" fill-rule="evenodd" d="M84 29.3h13.3V15.9H84z"/><path fill="#9797cc" fill-rule="evenodd" d="M97.3 29.3H84v13.3h13.3z"/><path fill="#ccf" fill-rule="evenodd" d="M70.7 56V42.5H57.3v13.3z"/><path fill="#9797cc" fill-rule="evenodd" d="M70.7 42.6v13.3H84V42.6zm0 13.4H57.3v13.3h13.4z"/><path fill="#ccf" fill-rule="evenodd" d="M84 29.3H70.7v13.3H84z"/><path fill="#000097" fill-rule="evenodd" d="M57.3 42.6V29.3H44v13.3z"/><path fill="#ccf" fill-rule="evenodd" d="M44 69.3h13.3V55.9H44z"/><path fill="#000097" fill-rule="evenodd" d="M828 16H110.7v13.3H97.3v13.3H84v13.3H70.7v13.4H828zM519 34.7h8.1l-3.8 7.6 5.7 13.2h-8.7L515.5 42zm-11.6 20.8V27.1h7.8v28.5zm-7.3-18.7 1.4 1.2.5.7.5.8.4.8.4.9.2.8.3 1-7.9.3-.6-.6-.3-.3-.3-.1-.6-.3h-.8l-1.2.2-.6.2-.4.4-.4.4-.2.6-.2 1.2v.6l.2.7.2.5.5.6.5.3.5.3.6.2h1.1l.4-.2.4-.2.4-.2.3-.3.3-.4.3-.5.3-.4 7.7-.4-.2 1.1-.2 1-.3 1-.2.2v.3l-.2.5-.2.4-.2.2v.3l-.6.8-.6.8-.6.8-.9.7-.8.6h-.3l-.2.2-.4.3h-.2l-.2.2-.4.2-1 .3-1 .3-1 .1h-2.2l-1-.1-1.1-.3-1-.3-1-.5-.8-.5-.9-.7-.7-.7-.8-.9-.6-.9-.6-.9-.4-1-.4-1-.2-1-.2-1V45l.2-2.2.6-2 1-1.8.6-.8.8-.8 1.7-1.4 1.8-1 .9-.4 1-.2 2.3-.1h.8l1 .1.8.2 1 .3.8.3.8.4zm-24 .5.6.7.6.9.5.9.5 1 .2 1 .3 1.1.1 1.1.1 1.3v10.2h-7.8V45.1l-.2-.6-.3-.7-.3-.5-.5-.4-.4-.3-.6-.2h-.6l-1.2.2-.5.2-.5.5-.4.4-.2.5-.2.5V46l.2.6.2.5.4.5.4.4.4.2.6.2h.6l1-.1.9-.4v8l-1 .2h-1.9L466 56l-1-.3-1-.3-1-.5-1-.5-.8-.7-.7-.7-.8-.8-.6-.8-.6-1-.4-.8-.4-1.1-.2-1-.2-1.1v-1.1l.2-2.2.2-1 .4-1 1-1.8 1.4-1.7 1.6-1.4 1.8-1 1-.4 1-.2 2.2-.1h1.2l1.2.1 1.1.2 1 .4 1 .4 1 .5.7.6zM433.3 27h7.8v18l.2.8.2.8.4.6.3.4.5.4.6.2h1.4l.2-.2h.4l.4-.3.6-.3.3-.6.3-.4.2-.6v-1.2l-.2-.5-.2-.5-.4-.4-.5-.5-.5-.2-.5-.2h-.5l-1 .1-.5.2-.5.4v-8.6l1.2-.1h1.9l1 .2 1 .2 1 .4 1 .4.9.6.8.6.8.8.7.7.7.9.5.9.5.9.3 1 .3 1 .1 1v2.2l-.1 1.1-.3 1-.3 1.1-.3.4-.1.2-.1.3-.5.9-.7.8-.4.4h-.1l-.1.2-.1.3-.9.6-.9.7-.9.5-.3.1-.2.1-.4.3-1 .3-1 .3-1.2.1-1 .1h-1.2l-1.2-.3-1.1-.3-1-.4-1.2-.6-1-.6-.8-.7-.7-.8-.7-.9-.5-.8-.4-1-.4-.8-.3-1-.1-1-.2-1.2V27.1m-11.4 0h7.8v18.5l-.2 1.1-.1.5v.5l-.3 1.1-.4.9-.4.9-.6.8-.5.9-.8.8-.3.1h-.1v.2l-.5.4-.9.6-.5.3-.3.1h-.1l-.1.2-1.2.4-.6.1-.5.2-1.2.2-1.1.1h-1.2l-1-.2-1.1-.3-1-.3-1-.5-.8-.5-1.7-1.3-.8-.9-.6-.8-.6-1-.4-.8-.4-1-.2-1-.2-1.1v-1.1l.1-2.2.6-2 1-1.7 1.4-1.7 1.7-1.4 1.8-1 2-.6 1-.2h1.9l1.2.1v8.6l-.5-.4-.5-.2-.9-.1-1.1.2-.6.2-.4.5-.4.4-.2.5-.2.5V46l.2.6.2.4.5.6.4.3.5.3.6.2h1.3l.3-.2h.3V48h.2l.3-.2.2-.2.2-.2.2-.4.2-.2.2-.8.2-.8zm-28.8 21 .4.5.6.5.6.2.8.1.5-.1.5-.2.6-.4.6-.4 4.4 5.3-.8.5-.8.5-.8.4-.8.4-1 .2h-.4l-.4.2-1 .1h-.4l-.4.1H394l-1.1-.2-1-.3-1-.3-1-.5-1-.5-.8-.6-.7-.7-.8-.8-.6-.9-.6-1-.4-.8-.4-1-.2-1-.2-1.1v-1.1l.2-2.2.2-1 .4-1 .4-1 .6-.9.6-.8.8-.8.8-.8.8-.6.9-.6 1-.4 2-.6 1.1-.1h2.2l1.1.1 1 .2 1 .4.9.4.9.6.9.6.8.8.7.7.6.9.5.8.5 1 .3.9.3 1 .1 1 .1 1.2v.5l-.1.4v.6H394l-.2-.9-.1-.8v-1l.4-1h4l-.3-.6-.1-.5-.3-.4-.2-.3-.4-.3-.4-.1-.5-.1h-1.2l-.6.2-.6.4-.5.6-.4.6-.2.8-.2.8v1.9l.2.9.2.7zM382.3 45v.5l-.1.4v.6h-11.8l-.2-.9v-1.8l.3-1h4l-.2-.6-.2-.5-.2-.4-.3-.3-.4-.3-.4-.1-.5-.1h-1.2l-.6.2-.6.4-.4.6-.5.6-.2.8-.2.8v1.9l.2.9.2.7.5.7.4.5.6.5.6.2.7.1.5-.1.6-.2.5-.4.7-.4 4.4 5.3-.8.5-.8.5-.9.4-.8.4-1 .2h-.4l-.4.2-1 .1h-.4l-.4.1h-1.2l-1-.2-1.1-.3-1-.3-1-.5-.9-.5-.9-.6-.7-.7-.8-.8-.6-.9-.6-1-.4-.8-.4-1-.2-1-.1-1.1v-1.1l.2-2.2.2-1 .4-1 .4-1 .6-.9.6-.8.8-.8.7-.8.9-.6.8-.6 1-.4 2.1-.6 1-.1h2.3l1 .1 1 .2 1 .4.9.4 1 .6.8.6.9.8.6.7.6.9.6.8.4 1 .4.9.2 1 .2 1zm-30.2-18.5h1.2l1.2.2 1.1.4 1.1.4 1 .6 1.1.8 1 .8.9 1.2-7 5-.3-.7-.5-.5-.6-.3h-1.6l-.3.3-.2.3-.3.3-.1.5v4.7h2.7v7.7h-2.8v7.4h-8.4V36.7l.1-1.2.2-1.1.4-1 .4-1 .5-1 1.4-1.7.8-.8.8-.6.9-.6 1-.4 1-.4 1-.2 1-.2z"/><path fill="#fff" fill-rule="evenodd" d="M527.1 34.8H519l-3.5 7.3 4.8 13.5h8.7l-5.7-13.2zm-19.7-7.7v28.5h7.8V27.1zm-3.6 16-.3-1-.2-.8-.4-.9-.4-.8-.5-.8-.5-.7L500 37l-1.6-1.2-.8-.4-.8-.3-1-.3-.8-.2-1-.1h-.8l-2.2.1-1.1.2-1 .4-1.7 1-1.7 1.4-.8.8-.6.8-1 1.8-.6 2-.2 2.2v1l.2 1.1.2 1 .4 1 .4 1 .6 1 .6.8.8.9.7.7.9.7.9.5 1 .5.9.3 1 .3 1.1.1h2.2l1-.1 1-.3 1-.3.4-.2.2-.2h.2l.4-.3.2-.1.3-.1.8-.6.9-.7.6-.8.6-.8.6-.8v-.3l.2-.2.2-.4.2-.5V49l.2-.2.3-1 .2-1 .2-1-7.7.3-.3.4-.3.5-.3.4-.3.3-.4.2-.4.2-.4.2h-1.1l-.6-.2-.5-.3-.5-.3-.5-.6-.2-.5-.2-.7v-.6l.2-1.2.2-.6.4-.4.4-.4.6-.2 1.2-.2h.8l.6.3.3.1.3.3.6.6zM479 45.4v-1.3l-.2-1.1-.3-1.1-.2-1-.5-1-.5-.9-.6-.9-.6-.7-.8-.8-.8-.6-.9-.5-1-.4-1-.4-1-.2-1.3-.1h-1.2l-2.2.1-1 .2-1 .4-1.8 1-1.6 1.4-1.4 1.7-1 1.8-.4 1-.2 1-.2 2.2v1l.2 1.2.2 1 .4 1 .4 1 .6.9.6.8.8.8.7.7.9.7.8.5 1 .5 1 .3 1.1.3 1 .1h2.1l.9-.1v-8.1l-1 .4-.9.1h-.6l-.6-.2-.4-.2-.4-.4-.4-.5-.2-.5-.2-.6v-1.2l.2-.5.2-.5.4-.4.5-.5.5-.2 1.2-.2h.6l.6.2.4.3.5.4.3.5.3.7.1.6.1.9v9.6h7.8zm-37.9-18.3h-7.8v18.5l.2 1.1.1 1 .3 1.1.4.9.4.9.5.8.7.9.7.8.9.7.9.6 1.1.6 1.1.4 1.1.3 1.2.2 1.2.1h1l1.2-.2 1-.3 1-.3.4-.3.2-.1h.3l1-.6.8-.7.9-.6.1-.3v-.1l.2-.1.4-.4.7-.8.5-1V50l.2-.2.3-.4.3-1 .3-1 .1-1.1V44l-.1-1.1-.3-1-.3-1-.5-1-.5-.8-.7-.9-.7-.7-.8-.8-.8-.6-1-.6-.8-.4-1-.4-1-.2-1.1-.2h-1.9l-1.2.1V43l.5-.4.5-.2 1-.1h.5l.5.2.5.2.5.5.4.4.2.5.2.5V46l-.2.6-.3.4-.3.6-.6.3-.4.3h-.4l-.2.2h-1.4l-.6-.2-.5-.4-.3-.4-.4-.6-.2-.8-.2-.8zm-11.4-.1H422v18l-.2.8-.2.8-.2.2-.2.4-.2.2-.2.2-.3.2h-.1l-.1.2h-.3l-.3.2h-1.3l-.6-.2-.5-.3-.4-.3-.5-.6-.2-.4-.2-.6v-1.2l.2-.5.2-.5.4-.4.4-.5.6-.2 1.1-.2 1 .1.4.2.5.4v-8.6l-1.2-.1h-2l-1 .2-1.9.6-1.8 1-1.7 1.4-1.4 1.7-1 1.8-.6 1.9-.1 2.2v1l.2 1.1.2 1 .4 1.1.4.9.6.9.6.8.8.9 1.7 1.3.8.5 1 .5 1 .3 1 .3 1.1.1 1.2.1h1l1.3-.3.5-.2.6-.1 1.2-.4v-.1l.2-.1.3-.1.5-.3 1-.6.3-.4.1-.1.1-.1.3-.1.8-.8.5-.9.6-.8.4-1 .4-.8.2-1 .1-.6.1-.5.2-1.1V27.1m-34.3 22.3-.8-.1-.6-.2-.6-.5-.4-.5-.4-.7-.2-.7-.2-.9v-2l.2-.7.2-.8.4-.6.5-.6.6-.4.6-.2h1.2l.5.1.4.1.4.3.2.3.3.4.1.5.2.6h-3.9l-.3 1-.1 1v.8l.3.9h11.8v-1.3l.1-.2v-1.1l-.2-1.1-.3-1-.3-1-.5-.9-.5-.8-.6-.9-.7-.7-.8-.8-.9-.6-1-.6-.8-.4-1-.4-1-.2-1-.1H394l-1 .1-2.1.6-1 .4-.9.6-.8.6-.8.8-.8.8-.6.8-.6.9-.4 1-.4 1-.2 1-.2 2.2v1l.2 1.1.2 1 .4 1.1.4.9.6.9.6.9.8.8.7.7.9.6.8.5 1 .5 1 .3 1.1.3 1 .1 1.3.1h.8l1-.2.4-.1v-.1h.4l1-.2.8-.4.8-.4.8-.5.8-.5-4.4-5.3-.6.4-.6.4-.5.2zm-13.3-2.9v-1.3l.1-.2v-1.1l-.2-1.1-.2-1-.4-1-.4-.9-.6-.8-.6-.9-.6-.7-.9-.8-.9-.6-.9-.6-.9-.4-1-.4-1-.2-1-.1h-2.2l-1.1.1-2 .6-1 .4-1 .6-.8.6-.7.8-.8.8-.6.8-.6.9-.4 1-.4 1-.2 1-.2 2.2v1l.1 1.1.2 1 .4 1.1.4.9.6.9.6.9.8.8.7.7.9.6.9.5 1 .5 1 .3 1 .3 1.1.1 1.2.1h.9l.9-.2.4-.1v-.1h.5l.9-.2.8-.4.9-.4.8-.5.8-.5-4.4-5.3-.7.4-.5.4-.6.2-.5.1-.7-.1-.6-.2-.6-.5-.4-.5-.5-.7-.2-.7-.2-.9v-2l.2-.7.2-.8.5-.6.4-.6.6-.4.6-.2h1.2l.5.1.4.1.4.3.3.3.2.4.2.5.2.6h-4l-.3 1v1.8l.2.9zm-21.5-15.6-1-1.2-.9-.8-1-.8-1-.6-1.2-.4-1.1-.4-1.2-.2h-2.4l-1.1.2-1 .2-1 .4-1 .4-.9.6-.8.6-.8.8-1.4 1.7-.5 1-.4 1-.4 1-.2 1.1-.1 1.2v18.9h8.4v-7.4h2.8v-7.7h-2.8v-3.4l.1-1.3.1-.5.3-.3.2-.3.3-.2.4-.2h.6l.6.1.6.3.5.5.3.7z"/><path fill="transparent" fill-rule="evenodd" d="M828 16V0H0v80h828V69.2H44V55.9h13.3V42.6H44V29.3h13.3v13.3h13.4V29.3H84V15.9h13.3V2.6h13.4v13.3z"/></svg>