<svg xmlns="http://www.w3.org/2000/svg" width="828.1" height="80" version="1.0"><path fill="#ccf" fill-rule="evenodd" d="M110.7 16V2.5H97.3v13.3z"/><path fill="#9797cc" fill-rule="evenodd" d="M110.7 29.3V15.9H97.3v13.4z"/><path fill="#ccf" fill-rule="evenodd" d="M84 29.3h13.3V15.9H84z"/><path fill="#9797cc" fill-rule="evenodd" d="M97.3 29.3H84v13.3h13.3z"/><path fill="#ccf" fill-rule="evenodd" d="M70.7 56V42.5H57.3v13.3z"/><path fill="#9797cc" fill-rule="evenodd" d="M70.7 42.6v13.3H84V42.6zM70.7 56H57.3v13.3h13.4z"/><path fill="#ccf" fill-rule="evenodd" d="M84 29.3H70.7v13.3H84z"/><path fill="#000097" fill-rule="evenodd" d="M57.3 42.6V29.3H44v13.3z"/><path fill="#ccf" fill-rule="evenodd" d="M44 69.3h13.3V55.9H44z"/><path fill="#000097" fill-rule="evenodd" d="M828 16H110.7v13.3H97.3v13.3H84v13.3H70.7v13.4H828zM486.2 45v.5l-.1.4v.6h-11.8l-.2-.9-.1-.8v-1l.4-1h4l-.3-.6-.1-.5-.3-.4-.2-.3-.4-.3-.4-.1-.5-.1H475l-.6.2-.6.4-.5.6-.4.6-.2.8-.2.8v1.9l.2.9.2.7.4.7.4.5.6.5.6.2.8.1.5-.1.5-.2.6-.4.6-.4 4.4 5.3-.8.5-.8.5-.8.4-.8.4-1 .2h-.4l-.4.2-1 .1h-.4l-.4.1h-1.2l-1.1-.2-1-.3-1-.3-1-.5-1-.5-.8-.6-.7-.7-.8-.8-.6-.9-.6-1-.4-.8-.4-1-.2-1-.2-1.1v-1.1l.2-2.2.2-1 .4-1 .4-1 .6-.9.6-.8.8-.8.8-.8.8-.6.9-.6 1-.4 2-.6 1.1-.1h2.2l1.1.1 1 .2 1 .4.9.4.9.6.9.6.8.8.7.7.6.9.5.8.5 1 .3.9.3 1 .1 1zm-32.9-.6v-1.1l-.2-.4v-.3l-.2-.3-.2-.1h-1.2l-.3.2-.1.3-.2.2-.1.4v12.3h-7.9V43.3l-.2-.4v-.3l-.2-.3-.2-.1H441l-.3.2-.1.3-.2.6-.1 1.1v11.2h-7.8V42.8l.1-1.7.4-1.6.8-1.4 1-1.2 1.2-1.2 1.4-.7 1.5-.5 1.7-.1h.8l.8.1 1.6.6 1.5.9 1.5 1.3 1.4-1.3 1.6-.9 1.5-.6 1.6-.1h.9l.9.1.8.2.9.4.7.3.7.5.7.6.7.8.4.5.4.7.2.6.4.8.1.8.2 1v.9l.1 1v12h-7.8zm-27.1-6.8.7.7.6.9.6.9.4.9.4 1 .2 1 .2 1v2.2l-.2 1-.2 1-.4 1.1-.2.4-.2.2v.3l-.6 1-.6.8-.4.4h-.2v.2l-.2.3-.8.6-.9.7-1 .5-.2.1-.2.1-.4.3-1 .3-1 .3-1.1.1-1.1.1h-1.1l-1.1-.2-1-.3-1-.3-1-.5-.9-.5-1.6-1.3-.8-.9-.6-.9-.6-.9-.4-.9-.4-1-.2-1-.2-1.1V44l.2-1 .2-1.1.4-1 1-1.8.6-.8.8-.8 1.6-1.4.9-.6 1-.4 2-.6 2.4-.1h1l1 .2 1 .2 1 .4 1 .4.9.6.8.6zm-43.3-10.5h8.5v10.2h2.3v7.5h-2.3v10.8h-8.5zm12.3 0h8.4v28.5h-8.4z"/><path fill="#fff" fill-rule="evenodd" d="M486 46.5v-.6l.1-.4v-.3l.1-.2v-1.1l-.2-1.1-.3-1-.3-1-.5-.9-.5-.8-.6-.9-.7-.7-.8-.8-.9-.6-1-.6-.8-.4-1-.4-1-.2-1-.1h-2.3l-1 .1-2.1.6-1 .4-.9.6-.8.6-.8.8-.8.8-.6.8-.6.9-.4 1-.4 1-.2 1-.2 2.2v1l.2 1.1.2 1 .4 1.1.4.9.6.9.6.9.8.8.7.7.9.6.8.5 1 .5 1 .3 1.1.3 1 .1 1.3.1h.8l1-.2.4-.1v-.1h.4l1-.2.8-.4.8-.4.8-.5.8-.5-4.4-5.3-.6.4-.6.4-.5.2-.5.1-.8-.1-.6-.2-.6-.5-.4-.5-.4-.7-.2-.7-.2-.9v-2l.2-.7.2-.8.4-.6.5-.6.6-.4.6-.2h1.2l.5.1.4.1.4.3.2.3.3.4.1.5.2.6h-3.9l-.3 1-.1 1v.8l.3.9zM453 42.6l.1.3.2.4v12.3h7.8v-13l-.1-1-.2-.9-.1-.8-.4-.8-.2-.6-.4-.7-.4-.5-.7-.8-.7-.6-.7-.5-.7-.3-.9-.4-.8-.2-1-.1h-.8l-1.6.1-1.5.6-1.6.9-1.4 1.3-1.5-1.3-1.5-.9-1.6-.6-.8-.1h-.8l-1.7.1-1.5.5-1.4.7L435 37l-1 1.2-.8 1.4-.4 1.6-.1 1.7v12.8h7.8V43.4l.3-.7.1-.3.3-.1.6-.2.6.1.2.1.2.3v.3l.2.4v12.3h7.8V44.4l.1-1v-.5l.3-.2.1-.3.3-.1.6-.2.6.1.2.1zM429.3 45.2v-1.1L429 43l-.2-1-.4-1-.4-1-.6-.8-.6-.9-.7-.7-.9-.8-.8-.6-1-.6-.8-.4-1-.4-1-.2-1.1-.2h-1l-2.3.1-2.1.6-1 .4-.9.6-1.6 1.4-.8.8-.6.8-1 1.8-.4 1-.2 1-.2 1.1v2.2l.2 1 .2 1 .4 1.1.4.9.6 1 .6.8.8.9 1.6 1.3.9.5 1 .5 1 .3 1 .3 1 .1 1.2.1h1l1.1-.2 1-.3 1.1-.3.4-.3.2-.1h.3l.9-.6.9-.7.8-.6.2-.3v-.1l.2-.1.4-.4.6-.9.6-.9v-.3l.2-.2.2-.4.4-1 .2-1 .2-1.1v-1m-8.8-2.2.4.4.2.5.2.6.1.7v.5l-.2.3v.3l-.3.6-.4.5-.5.3-.3.2h-.1v.2h-.4l-.3.2h-1.2l-.5-.2-.5-.4-.4-.3-.5-.5-.2-.6-.2-.6v-.5l.2-1.3.2-.5.5-.4.4-.5.5-.2.5-.2h1.2l.6.2.5.2z"/><path fill="#000097" fill-rule="evenodd" d="M421.4 45.2v-.7l-.3-.6-.2-.5-.4-.4-.5-.5-.5-.2-.6-.2h-1.2l-.5.2-.5.2-.4.5-.5.4-.2.5-.2 1.3v.5l.2.6.2.6.5.5.4.3.5.4.5.2h1.2l.3-.2h.3l.1-.2h.1l.3-.2.5-.3.4-.5.2-.6v-.2l.1-.1.1-.3z"/><path fill="#fff" fill-rule="evenodd" d="M391.4 27.1h-8.5v28.5h8.5V44.8h2.3v-7.5h-2.3zM403.6 27.1h-8.4v28.5h8.4z"/><path fill="transparent" fill-rule="evenodd" d="M828 16V0H0v80h828V69.2H44V55.9h13.3V42.6H44V29.3h13.3v13.3h13.4V29.3H84V15.9h13.3V2.6h13.4v13.3z"/></svg>