<svg xmlns="http://www.w3.org/2000/svg" width="828.1" height="80" version="1.0"><path fill="#ccf" fill-rule="evenodd" d="M110.7 16V2.5H97.3v13.3z"/><path fill="#9797cc" fill-rule="evenodd" d="M110.7 29.3V15.9H97.3v13.4z"/><path fill="#ccf" fill-rule="evenodd" d="M84 29.3h13.3V15.9H84z"/><path fill="#9797cc" fill-rule="evenodd" d="M97.3 29.3H84v13.3h13.3z"/><path fill="#ccf" fill-rule="evenodd" d="M70.7 56V42.5H57.3v13.3z"/><path fill="#9797cc" fill-rule="evenodd" d="M70.7 42.6v13.3H84V42.6zM70.7 56H57.3v13.3h13.4z"/><path fill="#ccf" fill-rule="evenodd" d="M84 29.3H70.7v13.3H84z"/><path fill="#000097" fill-rule="evenodd" d="M57.3 42.6V29.3H44v13.3z"/><path fill="#ccf" fill-rule="evenodd" d="M44 69.3h13.3V55.9H44z"/><path fill="#000097" fill-rule="evenodd" d="M828 16H110.7v13.3H97.3v13.3H84v13.3H70.7v13.4H828zM508.3 55.5V33.9l-3.5 7h1.7v6.2h-11.1l8.5-20h12.4v28.5zm-16.6-11.1v1.2l-.2 1.3-.2 1.2-.3 1.1-.4 1-.3.5-.2.5-.5 1-.3.4-.3.4-.8.8-.7.6-.9.6h-.3l-.2.2-.4.2-.5.2h-.3l-.2.2-1 .2-1 .2h-2.3l-1-.2-1.1-.2-1-.4-.9-.4-.8-.6-.7-.6-.7-.8-.7-.8-.6-1-.4-1-.4-1-.3-1.1-.2-1.2-.1-1.3V37l.1-1.3.2-1.2.3-1 .4-1.1.4-1 .6-.9.7-.8 1.4-1.4.8-.6 1-.4.9-.4 1-.2 1.1-.1h2.2l1.1.1 1 .2 1 .4.9.4.9.6.7.6.8.8.6.8.5 1 .5.9.4 1 .3 1.1.2 1.2.2 1.3v7.6M458 47h-11.1l8.4-20h12.5v28.5h-8V33.9l-3.5 7h1.7zm-25.9-12.7h1.1l1.3.2v8.3l-.8-.4h-1.2l-.4.2-.4.2-.2.4-.3.4-.1.6-.2.6v10.7h-7.8V44.3l.2-2.2.1-1 .3-.9.3-1 .5-.7 1.1-1.4 1.3-1.2 1.5-.8.8-.4 1-.2.9-.1zm-30.9 18.5-.8-.9-.6-.9-.6-.9-.4-.9-.4-1-.2-1-.2-1.1V44l.2-1 .2-1.1.4-1 1-1.8.6-.8.8-.8 1.7-1.4.8-.6 1-.4 2.1-.6 2.3-.1h1l1.1.2 1 .2 1 .4.9.4.9.6.9.6.8.8.7.7.7.9.5.9.5.9.3 1 .3 1 .1 1v2.2l-.1 1-.3 1-.3 1.1-.3.4-.1.2-.1.3-.5 1-.7.8-.4.4h-.1l-.1.2-.1.3-.9.6-.9.7-.9.5-.3.1-.2.1-.4.3-1 .3-1 .3-1.1.1-1 .1h-1.2l-1-.2-1.1-.3-1-.3-1-.5-.8-.5zM397 34.6v8.3l-.8-.4H395l-.4.2-.4.2-.3.4-.2.4-.2.6-.1.6v10.7h-7.8V44.3l.1-2.2.2-1 .3-.9.3-1 .4-.7 1.2-1.4 1.2-1.2 1.6-.8.8-.4.9-.2 1-.1h2zm-16-.2h1l1.3.2v8.3l-.8-.4h-1.2l-.4.2-.4.2-.2.4-.3.4-.1.6-.2.6v10.7H372V44.3l.2-2.2.1-1 .3-.9.3-1 .5-.7 1.1-1.4 1.3-1.2 1.5-.8.8-.4 1-.2.9-.1zm-20.7-7.3h7.4v8.2h-5.4l-1 .1h-.4l-.2.3-.3.1-.1.3-.2.2v.8l.2.3.1.3.3.2.2.1.4.1h.5l.7.1h4.6v6.3h-5.4l-1 .1h-.4l-.2.3-.3.1-.1.3-.1.7v.7l.2.3.3.2h.2l.4.2h7v8.2h-7.8l-1.1-.2-1-.2-1-.2-.9-.3-.7-.4-.7-.4-.6-.5-.7-.7-.5-.6-.4-.8-.3-.7-.3-.9-.2-.8-.1-1V34.7l.1-1 .4-1.6.3-.8.5-.7.4-.7.6-.5.6-.6.6-.5.8-.4.8-.2.8-.3 1-.1z"/><path fill="#fff" fill-rule="evenodd" d="M508.3 33.9v21.7h8V27.1H504l-8.5 20h11.1V41h-1.7zM489 53.1l.3-.4.3-.4.5-1 .2-.5.3-.5.4-1 .3-1.1.2-1.2.2-1.3V37l-.2-1.3-.2-1.2-.3-1-.4-1.1-.5-1-.5-.9-.6-.8-.8-.8-.7-.6-.9-.6-.9-.4-1-.4-1-.2-1-.1h-2.3l-1 .1-1.1.2-1 .4-.9.4-.8.6-1.4 1.4-.7.8-.6 1-.4.9-.4 1-.3 1.1-.2 1.2-.1 1.3v8.8l.1 1.3.2 1.2.3 1.1.4 1 .4 1 .6 1 .7.8.7.8.7.6.8.6 1 .4.9.4 1 .2 1.1.2h2.2l1.1-.2 1-.2.2-.2h.3l.5-.2.4-.2.2-.2h.3l.9-.6.7-.6zm-5.4-16.5v10.1l-.1.6-.2.2v.2l-.2.4-.4.3h-.1l-.2.2-.4.1-.4.1h-.5l-.4-.2-.4-.2-.3-.3-.3-.4-.1-.4V35.4l.1-.5.3-.3.3-.3.4-.2.4-.1h.9l.4.1.3.2.4.3.2.3.2.5v.5z"/><path fill="#000097" fill-rule="evenodd" d="M483.6 46.1V36l-.1-.5-.2-.5-.2-.3-.4-.3-.3-.2-.4-.1h-.9l-.4.1-.4.2-.3.3-.3.3-.1.5v11.9l.1.4.3.4.3.3.4.2.4.1.5.1h.4l.4-.2.1-.1v-.1h.2l.4-.3.2-.4v-.2l.2-.2v-.9z"/><path fill="#fff" fill-rule="evenodd" d="M446.9 47.1H458V41h-1.7l3.5-7v21.7h8V27.1h-12.5zM434.5 34.6l-1.3-.2h-2.1l-1 .1-.9.2-.8.4-1.5.8-1.3 1.2-1.1 1.4-.5.8-.3.9-.3.9-.1 1-.2 2.2v11.3h7.8V44.9l.2-.6.1-.6.3-.4.2-.4.4-.2.4-.2h1.2l.8.4zM398 45.2v1l.2 1 .2 1 .4 1.1.4.9.6 1 .6.8.8.9 1.7 1.3.8.5 1 .5 1 .3 1 .3 1.1.1 1.1.1h1.1l1-.2 1-.3 1.1-.3.4-.3.2-.1h.3l1-.6.8-.7.9-.6.1-.3v-.1l.2-.1.4-.4.7-.9.5-.9v-.3l.2-.2.3-.4.3-1 .3-1 .1-1.1v-2.1l-.1-1.1-.3-1-.3-1-.5-1-.5-.8-.7-.9-.7-.7-.8-.8-.9-.6-1-.6-.8-.4-1-.4-1-.2-1-.2h-1l-2.4.1-2 .6-1 .4-1 .6-1.6 1.4-.8.8-.6.8-1 1.8-.4 1-.2 1-.2 1.1zm8.8-2.2.4-.5.5-.2.6-.2h1.2l.6.2.4.2.6.5.3.4.3.5.2.6v1.2l-.2.3v.3l-.3.6-.3.5-.6.3-.2.2h-.2v.2h-.4l-.2.2h-1.2l-.6-.2-.5-.4-.4-.3-.5-.5-.2-.6-.2-.6v-.5l.2-1.3.2-.5z"/><path fill="#000097" fill-rule="evenodd" d="M409 42h-.7l-.6.3-.5.2-.4.5-.5.4-.2.5-.2 1.3v.5l.2.6.2.6.5.5.4.3.5.4.6.2h1.2l.2-.2h.4v-.2h.2l.2-.2.6-.3.3-.5.3-.6V46l.2-.3v-1.2l-.2-.6-.3-.5-.3-.4-.6-.5-.4-.2-.6-.2z"/><path fill="#fff" fill-rule="evenodd" d="M397 43v-8.4l-1.3-.2h-2.1l-1 .1-1 .2-.7.4-1.6.8-1.2 1.2-1.2 1.4-.4.8-.3.9-.3.9-.2 1-.1 2.2v11.3h7.8V44.9l.1-.6.2-.6.2-.4.3-.4.4-.2.4-.2h1.2zM383.3 34.6l-1.3-.2h-2.1l-1 .1-.9.2-.8.4-1.5.8-1.3 1.2-1.1 1.4-.5.8-.3.9-.3.9-.1 1-.2 2.2v11.3h7.8V44.9l.2-.6.1-.6.3-.4.2-.4.4-.2.4-.2h1.2l.8.4zM367.7 27.1h-7.4l-2 .2-1 .1-.8.3-.8.2-.8.4-.6.5-.6.6-.6.5-.4.7-.5.7-.3.8-.4 1.6-.1 1v13.2l.1 1 .2.8.3.9.3.7.4.8.5.6.7.7.6.5.7.4.7.4 1 .3.8.2 1.1.2 1 .1 1.3.1h6.6v-8.1H362l-.7-.1h-.6l-.4-.1-.2-.1-.3-.2-.1-.3-.1-.3v-1.1l.2-.3.3-.1.2-.2.4-.1h6.4v-6.4h-5.8l-.4-.2h-.2l-.3-.3-.1-.3-.2-.3v-.8l.2-.2.1-.3.3-.1.2-.2.4-.1h6.4z"/><path fill="transparent" fill-rule="evenodd" d="M828 16V0H0v80h828V69.2H44V55.9h13.3V42.6H44V29.3h13.3v13.3h13.4V29.3H84V15.9h13.3V2.6h13.4v13.3z"/></svg>