<svg xmlns="http://www.w3.org/2000/svg" width="828.1" height="80" version="1.0"><path fill="#ccf" fill-rule="evenodd" d="M110.7 16V2.5H97.3v13.3z"/><path fill="#9797cc" fill-rule="evenodd" d="M110.7 29.3V15.9H97.3v13.4z"/><path fill="#ccf" fill-rule="evenodd" d="M84 29.3h13.3V15.9H84z"/><path fill="#9797cc" fill-rule="evenodd" d="M97.3 29.3H84v13.3h13.3z"/><path fill="#ccf" fill-rule="evenodd" d="M70.7 56V42.5H57.3v13.3z"/><path fill="#9797cc" fill-rule="evenodd" d="M70.7 42.6v13.3H84V42.6zM70.7 56H57.3v13.3h13.4z"/><path fill="#ccf" fill-rule="evenodd" d="M84 29.3H70.7v13.3H84z"/><path fill="#000097" fill-rule="evenodd" d="M57.3 42.6V29.3H44v13.3z"/><path fill="#ccf" fill-rule="evenodd" d="M44 69.3h13.3V55.9H44z"/><path fill="#000097" fill-rule="evenodd" d="M828 16H110.7v13.3H97.3v13.3H84v13.3H70.7v13.4H828zM486.9 44.5l-.1-.7v-.4l-.1-.5-.1-.2-.4-.3-.7-.1h-.6l-.2.2-.2.3-.2.2v.3l-.1 1v11.2h-7.8V27.1h7.8V36l1-.7 1-.5.9-.2 1-.1h.7l.7.1.6.2.7.2.5.3.6.4.5.4.5.6.8 1.1.5 1.4.3 1.6.2 1.8v13.1h-7.8zm-32.3 8.3-.8-.9-.6-.9-.6-.9-.4-1-.4-1-.2-1-.2-1V45l.2-2.2.6-2 1-1.8.6-.8.8-.8 1.7-1.4 1.8-1 .9-.4 1-.2 2.3-.1h.8l1 .1.8.2 1 .3.8.3.8.4 1.6 1.2 1.4 1.2.5.7.5.8.4.8.4.9.2.8.3 1-7.9.3-.6-.6-.3-.3-.3-.1-.6-.3h-.8l-1.2.2-.6.2-.4.4-.4.4-.2.6-.2 1.2v.6l.2.7.2.5.5.6.5.3.5.3.6.2h1.1l.4-.2.4-.2.4-.2.3-.3.3-.4.3-.5.3-.4 7.7-.4-.2 1.1-.2 1-.3 1-.2.2v.3l-.2.5-.2.4-.2.2v.3l-.6.8-.6.8-.6.8-.9.7-.8.6h-.3l-.2.2-.4.3h-.2l-.2.2-.4.2-1 .3-1 .3-1 .1h-2.2l-1-.1-1.1-.3-1-.3-1-.5-.8-.5-.9-.7zm-4.3-18.3v8.3l-.8-.4h-1.2l-.4.2-.4.2-.3.4-.3.4-.1.6-.1.6v10.7h-7.8V44.3l.1-2.2.1-1 .4-.9.2-1 .5-.7 1.1-1.4 1.3-1.2 1.5-.8.8-.4 1-.2.9-.1h2.1zm-16 10.8v10.2h-7.8V45.1l-.2-.6-.2-.7-.4-.5-.4-.4-.5-.3-.6-.2h-.6l-1.1.2-.6.2-.4.5-.5.4-.2.5-.2.5V46l.2.6.2.5.4.5.4.4.5.2.5.2h.7l.9-.1 1-.4v8l-1 .2h-2l-1-.1-1.1-.3-1-.3-1-.5-.9-.5-.9-.7-.7-.7-.8-.8-.6-.8-.6-1-.4-.8-.4-1.1-.2-1-.1-1.1v-1.1l.1-2.2.2-1 .4-1 1-1.8 1.4-1.7 1.7-1.4 1.8-1 .9-.4 1-.2 2.3-.1h1.2l1.2.1 1 .2 1.1.4 1 .4.9.5.8.6.8.8.6.7.6.9.4.9.5 1 .3 1 .2 1.1.2 1.1zm-37.4-.5v.9l.2.9.2.7.5.7.4.5.6.5.6.2.7.1.6-.1.5-.2.5-.4.7-.4 4.4 5.3-.8.5-.8.5-.9.4-.8.4-.9.2h-.4l-.5.2-.9.1h-.5l-.4.1h-1.2l-1-.2-1.1-.3-1-.3-1-.5-.9-.5-.8-.6-.8-.7-.8-.8-.6-.9-.6-1-.4-.8-.4-1-.2-1-.1-1.1v-1.1l.2-2.2.2-1 .4-1 .4-1 .6-.9.6-.8.8-.8.7-.8.9-.6.9-.6 1-.4 2-.6 1.1-.1h2.2l1 .1 1 .2 1 .4 1 .4.9.6.8.6.9.8.7.7.6.9.5.8.5 1 .3.9.3 1 .1 1v2.7h-11.9l-.2-.9v-1.8l.4-1h3.9l-.2-.6-.1-.5-.3-.4-.3-.3-.4-.3-.4-.1-.4-.1h-1.2l-.6.2-.6.4-.5.6-.5.6-.2.8-.2.8zM383 26.5h.8l.9.1 1.7.5v8l-.9-.2-.5-.1-1 .1-.7.6-.5.8-.1 1v.4l.1.5.2.5.4.7.7 1.1.7 1.5.3.7.2.8.2.7v.3l.2.4.1 1.5v1l-.2 1-.3.9-.2.9-.5.8-.3.4-.1.2v.3l-.7.8-.6.8-.8.6-.8.6h-.3l-.2.2-.4.2-.8.5-1 .3-1 .2-1 .2h-2l-1-.2-1-.4-1-.3v-8.3l.5.4.6.2.5.2h1l.5-.2.4-.2.5-.2.3-.4.2-.4.2-.4v-.7l-.1-.1v-.1l-.1-.3-.1-.2-.2-.4-.2-.4-.3-.5-.1-.3V43l-1-1.8-.5-1.6-.4-1.7v-1.6l.1-2 .5-1.8.9-1.6.6-.8.7-.7.7-.7.8-.6 1.7-.9 1.8-.6z"/><path fill="#fff" fill-rule="evenodd" d="M486.6 42.8v.2l.2.5v12.1h7.9V42.5l-.2-1.8-.3-1.6-.5-1.4-.8-1.1-.5-.6-.5-.4-.6-.4-.5-.3-.7-.2-.6-.2-.7-.1h-1.7l-1 .3-1 .5-.9.7V27h-7.8v28.5h7.8V43.4l.1-.3.2-.2.2-.3.2-.1.6-.1h.7zM451.4 45v1.1l.2 1.1.2 1 .4 1 .4 1 .6 1 .6.8.8.9.7.7.9.7.9.5 1 .5.9.3 1 .3 1.1.1h2.2l1-.1 1-.3 1-.3.4-.2.2-.2h.2l.4-.3.2-.1.3-.1.8-.6.9-.7.6-.8.6-.8.6-.8v-.3l.2-.2.2-.4.2-.5V49l.2-.2.3-1 .2-1 .2-1-7.7.3-.3.4-.3.5-.3.4-.3.3-.4.2-.4.2-.4.2h-1.1l-.6-.2-.5-.3-.5-.3-.5-.6-.2-.5-.2-.7v-.6l.2-1.2.2-.6.4-.4.4-.4.6-.2 1.2-.2h.8l.6.3.3.1.3.3.6.6 7.9-.3-.3-1-.2-.8-.4-.9-.4-.8-.5-.8-.5-.7L469 37l-1.6-1.2-.8-.4-.8-.3-1-.3-.8-.2-1-.1h-.8l-2.2.1-1.1.2-1 .4-1.7 1-1.7 1.4-.8.8-.6.8-1 1.8-.6 2zM450.3 43v-8.4l-1.4-.2h-2.1l-1 .1-.9.2-.8.4-1.5.8-1.3 1.2-1.1 1.4-.5.8-.2.9-.4.9-.1 1-.1 2.2v11.3h7.8V44.9l.1-.6.1-.6.3-.4.3-.4.4-.2.4-.2h1.2zM434.3 55.6V44.1L434 43l-.2-1.1-.3-1-.5-1-.4-.9-.6-.9-.6-.7-.8-.8-.8-.6-1-.5-.9-.4-1-.4-1.1-.2-1.2-.1h-1.2l-2.2.1-1.1.2-1 .4-1.7 1-1.7 1.4-1.4 1.7-1 1.8-.4 1-.2 1-.1 2.2v1l.1 1.2.2 1 .4 1 .4 1 .6.9.6.8.8.8.7.7.9.7.9.5 1 .5 1 .3 1 .3 1.1.1h2l1-.1v-8.1l-1 .4-1 .1h-.6l-.5-.2-.5-.2-.4-.4-.4-.5-.2-.5-.2-.6v-1.2l.2-.5.2-.5.5-.4.4-.5.6-.2 1.1-.2h.6l.6.2.5.3.4.4.4.5.2.7.2.6v10.5zM397.8 48.1l-.5-.7-.2-.7-.2-.9v-2l.2-.7.2-.8.5-.6.5-.6.6-.4.6-.2h1.2l.4.1.4.1.4.3.3.3.3.4.1.5.2.6h-4l-.3 1v1.8l.2.9h11.8v-.6l.1-.4V44l-.1-1.1-.3-1-.3-1-.5-.9-.5-.8-.6-.9-.7-.7-.9-.8-.8-.6-1-.6-.8-.4-1-.4-1-.2-1.1-.1h-2.2l-1 .1-2.1.6-1 .4-.9.6-.9.6-.7.8-.8.8-.6.8-.6.9-.4 1-.4 1-.2 1-.2 2.2v1l.1 1.1.2 1 .4 1.1.4.9.6.9.6.9.8.8.8.7.8.6.9.5 1 .5 1 .3 1 .3 1.1.1 1.2.1h.9l1-.2.3-.1v-.1h.5l1-.2.7-.4.9-.4.8-.5.8-.5-4.4-5.3-.7.4-.5.4-.5.2-.6.1-.7-.1-.6-.2-.6-.5zM386.4 27l-1.7-.4-.9-.1h-.8l-2 .1-1.7.6-1.7.9-.8.6-.7.7-.7.7-.6.8-.9 1.6-.5 1.8-.1 2v1.6l.4 1.7.6 1.6.8 1.7v.1l.1.1.1.3.3.5.2.4.2.4v.2l.2.3v.2l.1.3v.4l-.2.4-.2.4-.3.4-.5.2-.4.2-.5.2h-1l-.5-.2-.6-.2-.5-.4v8.3l1 .3 1 .4 1 .2h2.1l1-.2.9-.2 1-.3.8-.5.4-.2.2-.2h.3l.8-.6.8-.6.6-.8.6-.8.1-.3.1-.2.3-.4.5-.8.2-1 .3-.9.1-1 .1-.9-.1-1.5-.2-.4v-.3l-.2-.7-.2-.8-.3-.7-.7-1.5-.7-1.1-.4-.7-.2-.5-.1-.5v-.4l.1-1 .5-.8.8-.6.9-.1h.5l.9.3z"/><path fill="transparent" fill-rule="evenodd" d="M828 16V0H0v80h828V69.2H44V55.9h13.3V42.6H44V29.3h13.3v13.3h13.4V29.3H84V15.9h13.3V2.6h13.4v13.3z"/></svg>