<svg xmlns="http://www.w3.org/2000/svg" width="186.7" height="32.1" version="1.0"><path fill="transparent" fill-rule="evenodd" d="M0 0v32h186.7V0zm178.7 5.3v21.4H4V5.3z"/><path fill="#cccce6" fill-rule="evenodd" d="M178.7 26.7V5.3H4v21.4zm-159-14-3.6 3.6 3.6 3.6v1.6h-1.4l-3.7-3.6-3.6 3.6H9.5V20l3.6-3.7-3.6-3.6v-1.5H11l3.6 3.6 3.7-3.6h1.4z"/><path fill-rule="evenodd" d="m16.1 16.3 3.6-3.6v-1.5h-1.4l-3.7 3.6-3.6-3.6H9.5v1.5l3.6 3.6L9.5 20v1.5H11l3.6-3.6 3.7 3.6h1.4v-1.6z"/><text xml:space="preserve" font-family="Arial" font-size="14.7" font-stretch="Normal" font-weight="400" letter-spacing="0" style="line-height:125%;text-align:start" transform="translate(64.4 21)" word-spacing="0"><tspan x="0" y="0"><tspan dx="0" dy="0">Products</tspan></tspan></text></svg>